<?xml version="1.0" encoding="UTF-8"?>
<svg width="1200pt" height="1200pt" version="1.1" viewBox="0 0 1200 1200" xmlns="http://www.w3.org/2000/svg">
 <g>
  <path d="m570.68 831.9c-11.711 12.539-22.777 24.395-38.125 29.473-0.89844 0.35938-1.9688 0.69531-3.0703 0.92578-6.3125 1.8711-13.223 2.8555-20.148 2.8555-31.68 0-59.664-20.195-69.66-50.258-12.758-38.438 8.125-80.102 46.535-92.867 24.539-3.9258 38.449-0.27734 52.906 3.1094 4.6094 1.0781 9.3125 2.1719 14.375 3.0703l-40.824-122.77-143.46 47.711 0.64844-9.8633c0.75781-11.797 2.9141-21.023 5.0156-29.941 3.3125-14.16 6.1797-26.375 3.1562-46.812-7.9336-23.508-30.863-40.066-56.785-40.066-6.4219 0-12.805 1.043-18.961 3.0859-30.793 10.246-47.82 42.684-38.746 73.848 0.21484 0.89844 0.37109 1.4141 0.5625 1.9453 4.1406 12.383 14.293 21.875 26.074 32.867 7.7773 7.2617 15.816 14.785 23.219 24.023l5.9531 7.4648-140.16 46.598 110.84 333.5 333.5-110.84-39.977-120.32c-4.5469 4.3672-8.7695 8.8789-12.875 13.27z"/>
  <path d="m279.64 650.26c-12.551-11.711-24.406-22.789-29.508-38.16-0.28906-0.76953-0.58984-1.7773-0.85156-2.7734-11.039-37.957 9.7578-77.566 47.363-90.07 7.5234-2.4961 15.301-3.7695 23.172-3.7695 31.68 0 59.688 20.219 69.684 50.281 3.6719 24.086 0.22656 38.734-3.1094 52.934-1.0781 4.6094-2.1836 9.3008-3.0703 14.352l122.79-40.824-47.703-143.45 9.8633 0.64844c11.785 0.75781 21.023 2.9141 29.953 5.0039 9.707 2.2695 18.887 4.4141 30.539 4.4141 5.207 0 10.523-0.42188 16.262-1.2734 14.125-4.7891 26.473-15.492 33.672-29.832 7.1875-14.363 8.375-30.66 3.2891-45.898-8.1836-24.613-31.078-41.16-57-41.16-5.6641 0-11.316 0.81641-16.801 2.4258-1.043 0.23828-1.5977 0.43359-2.1602 0.61328-12.191 4.043-21.684 14.219-32.676 25.98-7.2617 7.7773-14.797 15.84-24.07 23.242l-7.4531 5.9531-46.598-140.14-333.46 110.86 110.86 333.48 120.3-39.996c-4.3594-4.5391-8.8711-8.7383-13.273-12.84z"/>
  <path d="m462.93 361.71c11.746-12.551 22.824-24.406 38.172-29.508 0.81641-0.33594 1.9453-0.64844 3.0352-0.89844 6.3242-1.8477 13.246-2.8438 20.16-2.8438 31.691 0 59.676 20.195 69.672 50.27 6.2031 18.613 4.7539 38.508-4.043 56.051-8.7852 17.52-23.879 30.59-42.492 36.77-24.527 3.9375-38.461 0.28906-52.922-3.0703-4.5977-1.0781-9.2773-2.1719-14.34-3.0586l40.801 122.76 143.46-47.676-0.64844 9.8633c-0.75781 11.785-2.9141 21.012-5.0039 29.93-3.3008 14.16-6.1797 26.375-3.1562 46.836 7.9336 23.496 30.828 40.031 56.746 40.031h0.011718c6.4219 0 12.793-1.0195 18.949-3.0977 30.828-10.234 47.855-42.66 38.762-73.789-0.21484-0.9375-0.40625-1.5469-0.625-2.1367-4.0664-12.203-14.242-21.707-25.992-32.711-7.7891-7.2617-15.84-14.785-23.242-24.047l-5.9531-7.4766 140.18-46.57-110.86-333.5-333.52 110.86 39.996 120.31c4.5352-4.3867 8.7344-8.8867 12.84-13.293z"/>
  <path d="m1099.5 957c-8.6641-9.9961-21.672-14.832-36.758-20.496-8.5195-3.1797-17.316-6.457-26.258-10.969l-8.8438-4.4883 110.58-95.867-230.24-265.54-95.773 83.051c5.7461 2.5078 11.52 4.6797 17.16 6.7695 16.094 6.0234 31.285 11.699 41.879 23.93 0.63672 0.64844 1.3203 1.5 1.9688 2.3984 24.648 30.66 20.641 75.227-9.3477 101.21-13.332 11.566-30.395 17.93-48.035 17.93-21.324 0-41.566-9.2383-55.523-25.332-12.602-20.809-15.047-35.688-17.438-50.051-0.75781-4.6562-1.5469-9.4062-2.6758-14.41l-97.754 84.742 99.07 114.25-9.3828 3.1797c-11.16 3.7695-20.484 5.3164-29.508 6.8164-14.34 2.3398-26.746 4.3906-44.508 15.035-11.195 9.8281-18.492 24.434-19.656 40.477-1.1406 16.008 4.0312 31.512 14.543 43.656 11.426 13.188 27.996 20.734 45.434 20.734 13.633 0 26.977-4.7031 37.609-13.246 0.80469-0.5625 1.2344-0.92578 1.6562-1.2969 9.8047-8.5312 14.688-21.551 20.328-36.66 3.7305-9.9492 7.5703-20.27 13.297-30.637l4.5977-8.3633 96.77 111.59 113.1-98.09 2.9531 9.8984c2.7109 9.1211 4.0195 17.027 5.2695 24.684 2.375 14.363 4.4141 26.762 15.07 44.508 10.738 12.238 27.301 19.777 44.746 19.777 14.449 0 28.43-5.2305 39.359-14.699 24.516-21.254 27.805-57.758 7.5-83.039-0.45703-0.62891-0.79297-1.0508-1.1914-1.457z"/>
 </g>
</svg>
