<?xml version="1.0" encoding="UTF-8"?>
<svg width="1200pt" height="1200pt" version="1.1" viewBox="0 0 1200 1200" xmlns="http://www.w3.org/2000/svg">
 <path d="m733.66 176.73h89.109v44.555h44.555v133.66h-44.555v89.109h-44.555v44.555h89.109v-44.555h44.555v-89.109h44.555v-44.555h133.66v44.555h44.555v89.109h-44.555v44.555h-44.555v-89.109h-44.555v89.109h-44.555v44.555h-44.555v44.555h-133.66v44.555h89.109v44.555h89.109v44.555h44.555v133.66h-44.555v44.555h-44.555v44.555h44.555v44.555h-89.109v-133.66h44.555v-89.109h-44.555v-44.555h-133.66v-44.555h-44.555v89.109h-44.555v44.555h-44.555v89.109h44.555v44.555h44.555v133.66h-89.109v-44.555h44.555v-44.555h-89.109v-44.555h-44.555v-178.22h44.555v-44.555h-44.555v44.555h-89.109v44.555h-44.555v89.109h44.555v44.555h-89.109v-44.555h-44.555v-133.66h44.555v-44.555h44.555v-44.555h89.109v-44.555h-133.66v-44.555h-44.555v-89.109h-89.109v44.555h44.555v44.555h-133.66v-44.555h-44.555v-89.109h44.555v-44.555h222.77v44.555h44.555v89.109h89.109v-89.109h-44.555v-178.22h44.555v-44.555h44.555v-44.555h44.555v-44.555h178.22zm-133.66 445.54h-44.555v89.109h44.555zm-44.555-311.88h-89.109v89.109h89.109zm44.555 0v89.109h89.109v-89.109zm-77.465 77.371h-44.555v-44.555h44.555zm133.66 0h-44.555v-44.555h44.555z" fill-rule="evenodd"/>
</svg>
