<?xml version="1.0" encoding="UTF-8"?>
<svg width="1200pt" height="1200pt" version="1.1" viewBox="0 0 1200 1200" xmlns="http://www.w3.org/2000/svg">
 <g>
  <path d="m598.94 637.79c26.258 0 47.617-21.355 47.617-47.617l-0.003907-190.49c0-26.258-21.355-47.617-47.617-47.617-26.258 0-47.625 21.355-47.625 47.617v190.49c0.003906 26.258 21.367 47.613 47.629 47.613z"/>
  <path d="m490.08 637.79c26.258 0 47.617-21.355 47.617-47.617v-163.27c0-26.258-21.355-47.625-47.617-47.625-26.258 0-47.617 21.367-47.617 47.625v163.27c0.003906 26.262 21.359 47.617 47.617 47.617z"/>
  <path d="m848.66 622.19-27.215 27.215c-1.2734 1.2734-3.0078 1.9961-4.8086 1.9961h-95.242c-63.77 0-115.65 51.883-115.65 115.65 0 3.7578-3.0469 6.8047-6.8047 6.8047s-6.8047-3.0469-6.8047-6.8047c0-71.277 57.984-129.26 129.26-129.26h34.012v-455.8c0-26.258-21.367-47.625-47.625-47.625s-47.617 21.367-47.617 47.625v408.19c0 33.758-27.469 61.227-61.227 61.227-23.703 0-44.258-13.559-54.43-33.301-10.176 19.742-30.727 33.301-54.422 33.301-33.758 0-61.227-27.469-61.227-61.227l-0.003906-326.55c0-26.258-21.367-47.625-47.625-47.625-26.258 0-47.617 21.367-47.617 47.625v380.97c0 94.426 50.832 182.49 132.66 229.83 2.2344 1.293 3.3633 3.668 3.3008 6.0742l0.10938 165.48h258.51v-166.58c0-2.2891 1.1523-4.4258 3.0742-5.6914 19.164-12.582 37.105-27.195 53.352-43.426l212.74-212.75c-42.629-37.648-107.96-36.086-148.7 4.6602z"/>
 </g>
</svg>
