<?xml version="1.0" encoding="UTF-8"?>
<svg width="1200pt" height="1200pt" version="1.1" viewBox="0 0 1200 1200" xmlns="http://www.w3.org/2000/svg">
 <path d="m712.5 900h150v37.5h-150zm-112.5 37.5v-37.5h-75v37.5zm-150-75v187.5h37.5v-150h37.5v-37.5zm450 0h-37.5v37.5h37.5v150h37.5v-750h-37.5zm-75-600v37.5h75v-37.5zm-37.5 187.5h-75v37.5h75v150h37.5v-337.5h-37.5zm-112.5 37.5v-37.5h-75v-225h-37.5v412.5h37.5v-150zm0 0v150h37.5v-150zm37.5 187.5h75v-37.5h-75zm-112.5 0h75v-37.5h-75zm-150.01 187.51 0.011719-37.5-37.5-0.011719-0.011719 37.5zm-37.488-37.512v-37.5h-37.5v37.5zm-37.5-37.5v-37.5h-37.5v37.5zm-37.5-37.5v-37.5h-37.5v37.5zm75-75h37.5v-37.5h-37.5zm-112.5 37.5v-37.5h-37.5v37.5zm75-112.5v37.5h37.5v-37.5zm-37.5-37.5v37.5h37.5v-37.5zm-112.5 112.5h37.5v-112.5h-37.5zm37.5-150v37.5h75v-37.5zm225-337.5v37.5h75v-37.5zm-37.5 450h37.5v-412.5h-37.5z"/>
</svg>
