<?xml version="1.0" encoding="UTF-8"?>
<svg width="1200pt" height="1200pt" version="1.1" viewBox="0 0 1200 1200" xmlns="http://www.w3.org/2000/svg">
 <path d="m635.34 571.2v-64.441h64.441v64.441zm-64.441 64.562h64.441v-64.562h-64.441zm-64.559 64.438h64.559v-64.441h-64.559zm0 0h-64.559v-64.441h-128.88v64.441h64.441v64.559h-64.441v64.441h-64.559v64.559h-64.559v129h129.12v-64.559h64.441v-64.441h64.441l-0.007812-64.559h64.559v64.559h64.559v-129h-64.559zm322.56-516v64.559h128.88v129h64.559l0.003906-193.56zm0 64.562h-64.559v64.441h64.559zm64.441 193.44h64.441v-64.441h-64.441zm-64.441 64.562h64.441v-64.559h-64.441zm-64.559 64.438h64.559v-64.441h-64.559zm-64.559 64.562h64.559v-64.562h-64.559zm-64.441 64.438h64.441v-64.441h-64.441zm-64.441 64.562h64.441v-64.559h-64.441zm193.44-451.56h-64.559v64.559h64.559zm-64.559 64.562h-64.441v64.441h64.441zm-64.441 64.438h-64.441v64.559h64.441zm-64.441 64.562h-64.559v64.441h64.559zm-64.559 64.438h-64.559v64.559h64.559zm129 387v-64.441h-64.441v64.441zm-387-387v64.559h64.559v-64.559z"/>
</svg>
